<svg width="13" height="12" viewBox="0 0 13 12" fill="none" xmlns="http://www.w3.org/2000/svg">
<path fill-rule="evenodd" clip-rule="evenodd" d="M6.5 0C3.18629 0 0.5 2.68629 0.5 6C0.5 9.31371 3.18629 12 6.5 12C9.81371 12 12.5 9.31371 12.5 6C12.5 2.68629 9.81371 0 6.5 0ZM5.5 8.5C5.5 7.94772 5.94772 7.5 6.5 7.5C7.05228 7.5 7.5 7.94772 7.5 8.5C7.5 9.05228 7.05228 9.5 6.5 9.5C5.94772 9.5 5.5 9.05228 5.5 8.5ZM7.5 5.5C7.5 6.05228 7.05228 6.5 6.5 6.5C5.94772 6.5 5.5 6.05228 5.5 5.5V3.5C5.5 2.94772 5.94772 2.5 6.5 2.5C7.05228 2.5 7.5 2.94772 7.5 3.5V5.5Z" fill="#C9202A"/>
</svg>
